<?xml version="1.0" encoding="utf-8"?>
<!-- Generator: Adobe Illustrator 16.0.0, SVG Export Plug-In . SVG Version: 6.00 Build 0)  -->
<!DOCTYPE svg PUBLIC "-//W3C//DTD SVG 1.1//EN" "http://www.w3.org/Graphics/SVG/1.1/DTD/svg11.dtd" [
	<!ENTITY ns_flows "http://ns.adobe.com/Flows/1.0/">
	<!ENTITY ns_extend "http://ns.adobe.com/Extensibility/1.0/">
	<!ENTITY ns_ai "http://ns.adobe.com/AdobeIllustrator/10.0/">
	<!ENTITY ns_graphs "http://ns.adobe.com/Graphs/1.0/">
]>
<svg version="1.1" id="Layer_1" xmlns:x="&ns_extend;" xmlns:i="&ns_ai;" xmlns:graph="&ns_graphs;"
	 xmlns="http://www.w3.org/2000/svg" xmlns:xlink="http://www.w3.org/1999/xlink" xmlns:a="http://ns.adobe.com/AdobeSVGViewerExtensions/3.0/"
	 x="0px" y="0px" width="864px" height="864px" viewBox="0 0 864 864" enable-background="new 0 0 864 864" xml:space="preserve">
<path fill-rule="evenodd" clip-rule="evenodd" d="M537.13,585.224c1.061,2.485,2.121,4.97,3.182,7.455
	c-0.441,0.543-0.883,1.086-1.324,1.628c-6.273-5.791-12.548-11.584-18.822-17.375c-0.497,0.414-0.994,0.829-1.491,1.244
	c0.487,2.805,0.975,5.609,1.803,10.377c-3.768-3.982-6.279-6.637-9.883-10.445c0.45,3.743,0.732,6.091,1.137,9.455
	c-6.073-4.286-11.416-8.058-17.953-12.671c0.427,2.271,0.628,3.345,1.248,6.64c-7.783-6.35-14.278-11.649-21.773-17.764
	c-1.297,22.176-2.523,42.992-3.725,63.812c-0.6,10.398,0.741,21.383-2.24,31.039c-3.191,10.331-10.498,19.376-15.87,29.059
	c-1.535,2.767-4.246,6.256-3.589,8.631c3.386,12.232-1.542,23.195-4.12,34.527c-0.743,3.265-2.047,6.404-2.745,9.677
	c-2.238,10.495-2.545,10.741-11.809,8.636c2.499-15.741,4.981-31.382,7.673-48.348c-25.819,12.213-39.62-4.231-53.214-19.474
	c-17.205-19.291-27.09-42.565-31.903-67.684c-2.555-13.336-2.97-27.125-3.772-40.743c-1.399-23.748-2.16-47.534-3.559-71.283
	c-0.945-16.036-2.524-32.035-3.871-48.694c-2.453,1.731-4.337,3.265-6.407,4.481c-4.938,2.904-12.994,4.706-14.248,8.695
	c-1.892,6.021,0.992,13.52,1.751,20.401c1.958,17.726,4.007,35.445,5.622,53.202c0.224,2.464-1.57,5.248-2.817,7.686
	c-9.97,19.485-20.305,38.792-29.938,58.441c-3.898,7.952-6.294,16.636-9.445,24.96c-0.966,2.554-2.167,5.021-2.636,6.095
	c-5.445,0-9.629,0-15.051,0c0.055-1.032-0.621-3.972,0.462-5.945c4.115-7.499,9.469-14.365,13.141-22.051
	c10.352-21.674,20.154-43.612,30.022-65.514c1.312-2.912,1.761-6.212,2.99-10.731c-4.343,3.236-7.431,5.535-10.519,7.836
	c-0.544-0.378-1.089-0.756-1.634-1.135c4.764-7.186,9.529-14.371,15.016-22.646c-3.178,0.285-4.703,0.432-6.23,0.557
	c-4.485,0.368-4.767-1.018-2.292-4.529c3.343-4.744,6.549-9.789,1.886-16.178c-1.941,1.532-3.718,2.936-5.495,4.338
	c-0.352-0.27-0.703-0.541-1.054-0.811c2.091-4.056,4.183-8.111,6.644-12.885c-1.092-1.031-2.786-2.633-2.689-2.541
	c0-10.929-0.419-20.209,0.302-29.401c0.174-2.229,3.887-4.487,6.355-6.17c6.385-4.353,12.747-8.85,19.58-12.4
	c4.811-2.499,4.123-5.695,3.281-9.608c-1.75-8.14-3.377-16.307-5.054-24.463c-0.63,0.474-1.26,0.949-1.89,1.423
	c-3.157-4.074-6.231-8.218-9.557-12.147c-0.519-0.612-2.249-0.053-3.323-0.365c-5.573-1.619-9.187-4.66-8.502-11.219
	c0.144-1.371-1.206-2.896-2.23-5.15c-3.152,6.362,2.892,16.426-8.453,18.794c0-6.054,0-10.894,0-16.033
	c-3.456,2.579-6.485,4.839-9.515,7.1c-0.464-0.486-0.928-0.972-1.392-1.458c1.045-2.669,2.091-5.339,3.832-9.785
	c-6.394,0-11.743,0-17.091,0c-0.07-0.762-0.14-1.524-0.209-2.287c3.125-1.225,6.25-2.45,9.376-3.675
	c-0.095-0.476-0.19-0.95-0.285-1.425c-2.375,0.308-4.752,0.617-7.744,1.005c-2.595-4.566-5.286-9.299-8.299-14.6
	c-6.434,2.435-9.346,1.203-11.124-7.602c-2.612-12.934-8.099-25.462-13.73-37.523c-2.21-4.732-8.119-7.738-13.047-12.164
	c0.806-0.65,3.011-2.428,5.227-4.214c-0.617-1.603-1.543-3.194-1.833-4.893c-1.989-11.665-6.146-15.004-17.971-13.067
	c-16.305,2.671-32.597,5.506-48.766,8.889c-11.134,2.329-22.05,5.707-34.646,9.032c0.362-6.152,0.733-12.489,1.207-20.574
	c10.442,10.568,20.792,4.387,30.378,3.296c21.089-2.399,42.039-6.066,63.017-9.392c6.862-1.088,10.918,2.13,14.682,7.384
	c12.556,17.528,16.628,38.316,23.18,58.184c0.752,2.282,3.255,4.849,5.516,5.625c11.134,3.824,22.461,7.088,33.345,10.434
	c3.343-6.72,6.248-12.562,9.46-19.019c-8.559,3.816-16.843,7.511-24.864,11.087c-0.884-4.126-1.132-6.627-1.958-8.92
	c-5.271-14.62-10.314-29.2-0.762-44.062c0.299-0.465,0.962-1.084,0.841-1.375c-4.394-10.499,2.622-18.745,5.375-27.845
	c2.069-6.843-0.015-10.854-7.844-10.558c-3.561,0.135-7.13,0.023-10.957,0.023c3.702-4.549,3.702-4.549,19.289-3.078
	c-1.285-1.655-2.275-2.932-3.876-4.996c3.813,0.901,6.656,1.572,10.345,2.443c-0.632-4.25-1.153-7.756-1.974-13.284
	c2.131,3.49,3.221,5.275,4.243,6.95c1.5-6.104,3.027-12.324,4.555-18.543c0.688,0.199,1.377,0.398,2.066,0.597
	c-0.504,6.471-1.007,12.942-1.699,21.851c8.128-1.735,14.374-3.067,20.619-4.404c0.542-0.117,1.085-0.424,1.61-0.388
	c14.734,1.021,29.531,1.559,44.164,3.405c5.168,0.651,9.951,4.474,14.875,6.917c2.96,1.47,5.854,3.073,10.135,5.333
	c-5.167,7.021-10.563,14.355-16.737,22.745c7.726-2.646,14.105-4.832,21.283-7.291c-1.183-11.892-2.14-24.037-3.839-36.078
	c-0.279-1.981-3.618-3.835-5.879-5.182c-15.425-9.184-31.131-17.91-46.366-27.394c-11.872-7.39-13.689-13.633-9.137-26.795
	c7.819-22.603,15.963-45.096,23.507-67.789c1.576-4.742,1.144-10.151,1.796-16.9c4.232,0.412,10.47,1.02,17.506,1.706
	c-15.431,28.025-25.828,55.958-34.112,84.854c-1.851,6.458,0.578,8.562,4.562,11.188c3.661,2.413,7.499,4.559,10.932,6.625
	c1.897-2.233,3.978-4.68,6.057-7.127c0.963,0.119,1.925,0.238,2.888,0.357c-5.045,10.237,1.387,12.956,7.996,16.789
	c12.944,7.506,25.277,16.063,36.766,23.478c4.675,8.25,8.996,15.876,13.554,23.919c1.22-1.303,2.559-2.734,3.898-4.164
	c0.598,0.104,1.197,0.208,1.795,0.312c-0.91,4.385-1.819,8.769-2.949,14.215c3.375,0.95,7.185,2.024,12.881,3.628
	c-3.979,2.061-6.765,3.504-10.98,5.688c6.026,2.101,11.152,3.887,16.278,5.674c0.026,0.741,0.053,1.481,0.08,2.222
	c-4.892,0.803-9.783,1.606-15.107,2.48c2.1,4.754,14.899,3.772,8.836,11.483c3.448,4.997,6.053,8.862,8.761,12.657
	c1.365,1.914,2.54,4.638,4.439,5.396c25.563,10.213,22.261,15.926,40.845-6.408c7.176-8.624,13.771-10.21,24.262-5.977
	c5.664,2.287,13.338-0.405,19.391-0.805c-0.355,0.34-1.66,1.585-2.965,2.831c0.104,0.589,0.208,1.179,0.312,1.767
	c4.992-0.916,9.983-1.832,16.336-2.997c-2.892,2.485-4.82,4.144-6.857,5.895c7.271,3.815,7.271,3.815,27.259-1.061
	c-4.804,2.963-7.724,4.765-11.255,6.943c6.036,3.85,10.362,2.227,15.236-1.152c4.033-2.796,9.033-4.196,13.604-6.215
	c0.348,0.652,0.695,1.306,1.042,1.958c-2.76,2.561-5.52,5.122-8.278,7.682c0.232,0.69,0.465,1.38,0.697,2.07
	c37.699-4.434,73.01-18.947,109.111-28.324c-0.837,4.991-1.304,9.691-2.572,14.164c-0.37,1.305-2.98,2.705-4.639,2.804
	c-30.034,1.794-57.624,13.201-85.574,22.578c-13.193,4.425-23.884-0.335-35.424-3.448c-14.346-3.869-28.807-7.516-42.777-12.493
	c-6.826-2.433-9.936,1.384-13.603,4.742c-3.591,3.288-6.475,7.346-10.252,11.745c9.94,2.504,20.159,4.99,30.33,7.655
	c42.927,11.248,86.24,21.239,128.619,34.269c30.518,9.383,53.178,30.728,69.375,58.323c7.31,12.454,9.267,25.188-3.455,39.145
	c17.929,0,33.571,0,49.57,0c2.353,8.419,1.157,10.782-8.184,10.992c-16.066,0.361-32.373,5.83-48.188-1.953
	c-1.337-0.658-4.121,0.039-5.407,1.104c-17.09,14.162-36.708,13.001-56.846,10.056c-23.528-3.441-47.124-6.413-71.701-9.727
	c4.957,8.438,9.394,15.988,14.845,25.267c-3.191-1.829-4.458-2.556-7.259-4.162c3.202,7.534,5.783,13.603,9.055,21.299
	c-3.812-2.042-6.204-3.323-10.354-5.546c3.337,5.26,5.666,8.93,8.089,12.75c-2.897-0.342-5.659-0.667-9.981-1.177
	c5.383,7.9,9.912,14.549,14.441,21.197c-0.415,0.429-0.832,0.858-1.247,1.287c-2.663-1.125-5.326-2.249-8.958-3.784
	c0.684,2.915,1.484,4.945,1.577,7.007c0.201,4.481,4.649,8.597-0.628,13.817c-1.94,1.919,1.084,8.855,1.968,14.268
	c-2.963-1.383-5.509-2.57-9.52-4.44c1.182,3.975,2.019,6.789,3.048,10.254c-3.325-0.461-6.032-0.836-9.128-1.266
	c-0.253,2.792-0.497,5.49-0.795,8.782c-2.952-1.441-5.341-2.608-8.736-4.267c0.776,3.525,1.352,6.135,2.009,9.119
	c-6.228-0.949-12.317-1.878-18.407-2.806c-0.057,0.52-0.112,1.039-0.168,1.558c-4.734-2.287-9.469-4.575-14.203-6.862
	C537.852,584.065,537.49,584.646,537.13,585.224z"/>
</svg>
